<?xml version="1.0" encoding="UTF-8"?>
<svg version="1.1" xmlns="http://www.w3.org/2000/svg" width="1200" height="1200">
<path d="M0 0 C396 0 792 0 1200 0 C1200 396 1200 792 1200 1200 C804 1200 408 1200 0 1200 C0 804 0 408 0 0 Z " fill="#FEFEFE" transform="translate(0,0)"/>
<path d="M0 0 C0.94472168 0.51949219 1.88944336 1.03898438 2.86279297 1.57421875 C15.26677237 8.40001947 27.5457354 15.42635165 39.72070312 22.65136719 C54.21040883 31.22475347 68.80176496 39.6218151 83.42602539 47.96289062 C100.66155945 57.79412632 117.83749813 67.72690144 134.97070312 77.73535156 C151.89137443 87.6140539 168.88254254 97.36916381 185.90216064 107.07608032 C194.98795878 112.25985125 204.03821041 117.50194021 213.06738281 122.78369141 C223.57354965 128.9276588 234.11879652 135.00328847 244.66503906 141.078125 C248.08753545 143.05044502 251.50884387 145.02481551 254.9296875 147 C268.23037867 154.68363519 268.23037867 154.68363519 281.5625 162.3125 C283.70895909 163.54057361 285.85476294 164.76979297 288 166 C288.68384766 166.38994141 289.36769531 166.77988281 290.07226562 167.18164062 C298.47340819 171.98334722 306.58269935 176.73580912 314 183 C315.20462891 183.90878906 315.20462891 183.90878906 316.43359375 184.8359375 C329.09721124 195.51423901 339.06836614 214.64342293 341 231 C342.61062655 255.47562074 338.40051444 277.1084006 322.34960938 296.35351562 C314.89070101 304.75486296 306.62321522 310.88017664 296.8125 316.25 C295.09079652 317.2175364 293.36910611 318.18509749 291.64840698 319.15441895 C289.90010695 320.13748978 288.14869088 321.11483284 286.39697266 322.09179688 C281.22642602 324.99628103 276.11402536 327.99748432 271 331 C257.271321 339.02584028 243.48919239 346.95859868 229.70898438 354.89550781 C226.43068938 356.78398493 223.15271515 358.67301666 219.875 360.5625 C218.79605469 361.18447266 217.71710938 361.80644531 216.60546875 362.44726562 C209.43128049 366.58688448 202.2744002 370.75524921 195.125 374.9375 C185.85436069 380.35958699 176.54063301 385.70324012 167.20953369 391.02023315 C159.11292071 395.63484077 151.04216251 400.29093425 143 405 C134.40482534 410.03189893 125.77679783 415.00374921 117.125 419.9375 C99.74182278 429.85172571 82.3993186 439.83457154 65.125 449.9375 C55.85852229 455.35702268 46.55114215 460.70222171 37.22161865 466.01217651 C29.88582691 470.18744339 22.58044529 474.40916321 15.31005859 478.69775391 C-9.43004855 493.26863877 -32.72694754 504.72828077 -62.203125 498.10546875 C-85.09843323 491.43944794 -103.19851236 477.56275146 -114.8203125 456.73828125 C-121.32693828 443.44710849 -123.60438955 430.67405235 -123.50793457 416.0294342 C-123.51255581 414.4769606 -123.51891686 412.92449139 -123.52684355 411.37203115 C-123.54339247 407.14969767 -123.53535708 402.92773031 -123.52289867 398.70539629 C-123.51379063 394.13473503 -123.52784629 389.56413359 -123.53881836 384.9934845 C-123.55654757 376.05656571 -123.55278852 367.11978176 -123.5411678 358.18285782 C-123.53211107 350.91503506 -123.53091914 343.64724993 -123.53526306 336.37942314 C-123.53587599 335.34253923 -123.53648893 334.30565532 -123.53712043 333.23735068 C-123.53839942 331.13051338 -123.53969627 329.0236761 -123.5410108 326.91683882 C-123.55240035 307.18910282 -123.53932872 287.46144133 -123.51780933 267.73371755 C-123.49994249 250.83163703 -123.50304222 233.92966643 -123.52148438 217.02758789 C-123.54292441 197.36895755 -123.55129908 177.71039243 -123.53903532 158.05175203 C-123.53776121 155.95263224 -123.53650373 153.85351244 -123.53526306 151.75439262 C-123.53464596 150.72176337 -123.53402886 149.68913412 -123.53339306 148.62521308 C-123.52994935 141.37241569 -123.53574737 134.11965991 -123.54518127 126.86686897 C-123.55643762 118.01902087 -123.55328522 109.17131458 -123.5320583 100.32348258 C-123.52159621 95.81509864 -123.51734266 91.30695055 -123.53065491 86.79856873 C-123.5426861 82.66123718 -123.5358423 78.52435725 -123.5147447 74.38706594 C-123.51032354 72.90070289 -123.51244213 71.41430066 -123.52224785 69.92796338 C-123.6029261 56.66835157 -121.60635742 43.44627447 -115.25 31.625 C-114.90710938 30.96564453 -114.56421875 30.30628906 -114.2109375 29.62695312 C-111.11549769 23.85971947 -107.42078465 18.83141089 -103 14 C-102.40960938 13.31808594 -101.81921875 12.63617188 -101.2109375 11.93359375 C-74.48973805 -17.11860395 -32.60492092 -18.15869758 0 0 Z " fill="#C42461" transform="translate(485,246)"/>
<path d="M0 0 C2.34859645 1.1848159 4.60511048 2.47000036 6.86816406 3.81103516 C7.72845215 4.30249023 8.58874023 4.79394531 9.47509766 5.30029297 C12.2834112 6.91121679 15.07612753 8.54708585 17.86816406 10.18603516 C19.77653625 11.29363684 21.68539544 12.40039984 23.59472656 13.50634766 C27.60068148 15.83223503 31.59969948 18.16955643 35.59472656 20.51416016 C42.00063202 24.27052366 48.43225865 27.9813716 54.86816406 31.68603516 C63.28204001 36.53063461 71.67683811 41.4060901 80.05566406 46.31103516 C87.78981877 50.83612306 95.55835554 55.29285133 103.36816406 59.68603516 C116.29640636 66.95955173 129.09161861 74.45539277 141.88867188 81.95654297 C153.78313599 88.92544446 165.71220954 95.82011205 177.72705078 102.57958984 C183.8766034 106.04445365 189.97783895 109.57912219 196.0480957 113.18066406 C202.73527582 117.13562442 209.49024737 120.96979538 216.24316406 124.81103516 C225.88627039 130.29649574 235.46456789 135.87908079 244.99316406 141.56103516 C253.1418038 146.41847408 261.32504464 151.17589495 269.64135742 155.73999023 C276.78416157 159.66591412 283.80043086 163.79316795 290.80126953 167.96582031 C292.88743227 169.19741037 294.9869401 170.40297185 297.09082031 171.60400391 C298.43330581 172.38128275 299.77575527 173.15862385 301.11816406 173.93603516 C301.72619873 174.27642822 302.3342334 174.61682129 302.96069336 174.9675293 C307.76895769 177.78052288 311.35346741 181.15664184 313.86816406 186.18603516 C314.10644531 188.10400391 314.10644531 188.10400391 314.18066406 190.37353516 C314.21804688 191.10958984 314.25542969 191.84564453 314.29394531 192.60400391 C313.41231465 197.95040635 310.99189155 201.29842161 306.85644531 204.56494141 C305.64224766 205.3111143 304.4159752 206.03786201 303.18066406 206.74853516 C302.49568848 207.15998779 301.81071289 207.57144043 301.10498047 207.99536133 C293.66216423 212.41742245 286.07184425 216.5955974 278.50317383 220.79711914 C271.47838217 224.70001555 264.52329796 228.70036515 257.61816406 232.81103516 C250.61275787 236.98139789 243.58041579 241.0936994 236.49316406 245.12353516 C229.0681629 249.34552645 221.67683129 253.62074776 214.30566406 257.93603516 C205.52436226 263.07475989 196.70802113 268.14901535 187.86816406 273.18603516 C178.1506215 278.72376826 168.46675149 284.31575457 158.81225586 289.96289062 C143.6744495 298.81454158 128.47822033 307.56542532 113.24316406 316.24853516 C104.84888871 321.03368925 96.49776871 325.89016642 88.15625 330.76660156 C77.51251161 336.98593065 66.83244775 343.14171433 56.15039062 349.29492188 C50.7215646 352.42283666 45.29499807 355.55466605 39.86816406 358.68603516 C38.28575928 359.59881226 38.28575928 359.59881226 36.67138672 360.5300293 C31.57258109 363.47117056 26.4742684 366.41315842 21.37744141 369.35772705 C18.95768742 370.75562116 16.53769144 372.15309605 14.11767578 373.55053711 C12.40015354 374.5425584 10.68298355 375.53518945 8.96582031 376.52783203 C7.93328125 377.12402344 6.90074219 377.72021484 5.83691406 378.33447266 C4.92361328 378.86218262 4.0103125 379.38989258 3.06933594 379.93359375 C-1.93597888 382.78156014 -6.42229804 383.13890555 -12.13183594 382.18603516 C-16.68468163 379.52594554 -20.13774019 376.0959451 -22.13183594 371.18603516 C-22.3848356 368.38140261 -22.3848356 368.38140261 -22.38910484 365.07273293 C-22.39555374 363.81096312 -22.40200263 362.54919332 -22.40864694 361.24918807 C-22.40570457 359.84627024 -22.40256912 358.4433528 -22.39926147 357.04043579 C-22.40299694 355.55220444 -22.40759804 354.06397506 -22.41299212 352.5757488 C-22.42525036 348.48037931 -22.42495834 344.38509133 -22.42260337 340.28970766 C-22.42219592 335.87515783 -22.43322747 331.46063439 -22.44271851 327.0460968 C-22.45934474 318.39514757 -22.46482878 309.7442256 -22.46594326 301.09326173 C-22.46689293 294.06298815 -22.47099915 287.03272358 -22.47734451 280.00245285 C-22.49496103 260.0796271 -22.50418269 240.15682291 -22.50268357 220.23398931 C-22.50260365 219.15952186 -22.50252374 218.08505441 -22.50244141 216.97802734 C-22.50235964 215.90225128 -22.50227788 214.82647522 -22.50219364 213.71809988 C-22.50138054 196.27891535 -22.52052339 178.83981716 -22.54871814 161.40065761 C-22.57742577 143.50335943 -22.59125962 125.60610339 -22.58953059 107.7087816 C-22.58886597 97.65711153 -22.59438961 87.60553196 -22.61588669 77.5538826 C-22.63407056 68.99644686 -22.63846884 60.43914266 -22.62486784 51.881696 C-22.61832414 47.51435812 -22.61827132 43.1472728 -22.63557434 38.77995872 C-22.65124843 34.78273574 -22.64849991 30.78596675 -22.63100608 26.78875522 C-22.62792363 25.34193847 -22.63161526 23.8950883 -22.64272623 22.44831093 C-22.73876303 9.05741049 -22.73876303 9.05741049 -18.13183594 4.18603516 C-16.27246094 2.50634766 -16.27246094 2.50634766 -14.38183594 1.31103516 C-13.76824219 0.90111328 -13.15464844 0.49119141 -12.52246094 0.06884766 C-8.2135292 -1.52235916 -4.26216888 -1.62735582 0 0 Z " fill="#FEFEFE" transform="translate(448.1318359375,298.81396484375)"/>
<path d="M0 0 C27.15122359 -0.13648003 54.30148269 -0.12653081 81.45266724 0.01314545 C82.28689209 0.01740288 83.12111694 0.02166031 83.98062134 0.02604675 C138.55849184 0.31242319 193.21096189 1.22176507 247.64016724 5.57564545 C248.37306976 5.63363312 249.10597229 5.69162079 249.86108398 5.75136566 C257.22169492 6.34920447 264.291511 7.18959419 271.45266724 9.01314545 C271.45266724 10.00314545 271.45266724 10.99314545 271.45266724 12.01314545 C258.52612403 15.48978941 245.38745575 16.2197678 232.07766724 17.07564545 C230.78199829 17.15963593 229.48632935 17.2436264 228.15139771 17.33016205 C145.14678649 22.62759394 61.66650457 21.64743335 -98.29733276 19.63814545 C-99.58661682 19.59063833 -99.58661682 19.59063833 -100.90194702 19.54217148 C-174.54280547 16.79310844 -174.54280547 16.79310844 -192.54733276 12.01314545 C-192.21733276 11.02314545 -191.88733276 10.03314545 -191.54733276 9.01314545 C-188.46479546 8.5489079 -185.38143024 8.09181749 -182.29733276 7.63814545 C-181.46330933 7.51181732 -180.62928589 7.3854892 -179.76998901 7.25533295 C-159.28649621 4.26504203 -138.7074767 3.29105982 -118.04733276 2.45064545 C-117.27265152 2.41864925 -116.49797028 2.38665306 -115.69981384 2.35368729 C-77.14073911 0.76196158 -38.58877133 0.19913639 0 0 Z " fill="#E8E7E9" transform="translate(554.5473327636719,749.9868545532227)"/>
<path d="M0 0 C0.33 0 0.66 0 1 0 C1.00059709 0.75523882 1.00119418 1.51047763 1.00180936 2.28860247 C1.03768802 47.03073191 1.09430343 91.77279379 1.17792095 136.51486079 C1.18793864 141.88474416 1.19778273 147.25462783 1.20751953 152.62451172 C1.2094609 153.69357794 1.21140228 154.76264417 1.21340248 155.86410634 C1.24444016 173.18387422 1.26140807 190.50362884 1.27319422 207.82341929 C1.28559662 225.58954111 1.31307741 243.35559324 1.35461307 261.12167108 C1.37977456 272.08803248 1.39311535 283.05427835 1.39142957 294.02066903 C1.39139986 301.53642627 1.40599039 309.05206566 1.43216428 316.56777699 C1.44684043 320.90671489 1.45498743 325.2454111 1.44580269 329.58436966 C1.43753784 333.5558774 1.44760928 337.52689876 1.47233662 341.49833421 C1.47803748 342.9358366 1.47697818 344.37338482 1.46851245 345.81087358 C1.19610699 355.76896675 1.19610699 355.76896675 6 364 C7.0209375 365.175625 7.0209375 365.175625 8.0625 366.375 C12.63291647 368.9033155 16.88529146 368.70995635 22 368 C26.11324079 366.44406437 29.74992622 364.28167688 33.5 362 C35.10210327 361.06462402 35.10210327 361.06462402 36.73657227 360.11035156 C39.58779848 358.43942158 42.42564835 356.74844234 45.25762939 355.04516602 C48.16229598 353.30279341 51.0797433 351.5820937 53.99609375 349.859375 C57.46593497 347.80772891 60.93413911 345.7534939 64.39575195 343.68798828 C71.30036618 339.57313234 78.25257931 335.58056614 85.30004883 331.71679688 C95.65366493 326.02236704 105.80793927 319.9768856 116 314 C129.21459376 306.2577207 142.45948187 298.57315048 155.76776123 290.99313354 C165.34050764 285.54022142 174.8699679 280.01824112 184.36328125 274.42773438 C188.84573175 271.79673082 193.30697925 269.23664033 198 267 C198 267.66 198 268.32 198 269 C192.58823529 273 192.58823529 273 190 273 C190 273.66 190 274.32 190 275 C187.35261084 276.4606285 186.10551666 277 183 277 C183 277.66 183 278.32 183 279 C181.68 279 180.36 279 179 279 C179 279.66 179 280.32 179 281 C177.56705502 281.84114171 176.12845595 282.67265687 174.6875 283.5 C173.88699219 283.9640625 173.08648438 284.428125 172.26171875 284.90625 C170 286 170 286 167 286 C166.67 286.99 166.34 287.98 166 289 C164.00390625 290.16796875 164.00390625 290.16796875 161.5625 291.1875 C160.75941406 291.53167969 159.95632813 291.87585938 159.12890625 292.23046875 C157 293 157 293 155 293 C154.67 293.99 154.34 294.98 154 296 C152.43359375 296.9921875 152.43359375 296.9921875 150.4375 297.875 C147.48350903 299.25458224 144.73946924 300.73155055 142 302.5 C138.72410198 304.60224951 135.38469736 306.3616909 131.859375 308.0078125 C129.92913809 308.97636435 129.92913809 308.97636435 128.08984375 310.4375 C125.76372961 312.17665076 123.37405502 313.50735879 120.8125 314.875 C119.843125 315.39707031 118.87375 315.91914062 117.875 316.45703125 C116.92625 316.96621094 115.9775 317.47539063 115 318 C108.07517121 321.76204641 101.37047866 325.75301422 94.8125 330.125 C88.20588235 334.52941176 88.20588235 334.52941176 84.4375 336 C81.96580039 336.894683 81.96580039 336.894683 80 338.5 C78 340 78 340 75.5625 340.9375 C71.71273099 342.53374569 68.92331533 345.07668467 66 348 C64.33333333 348.33333333 62.66666667 348.66666667 61 349 C60.34 349.66 59.68 350.32 59 351 C57.824375 351.4125 56.64875 351.825 55.4375 352.25 C49.49005455 354.38414709 44.15737945 357.78269334 39.75 362.3125 C37.55697205 364.42720552 35.9540716 364.48303747 33 365 C31.64664105 365.97272675 30.31337396 366.9739266 29 368 C27.33607955 368.67349161 25.66967972 369.3409159 24 370 C23.34 370.66 22.68 371.32 22 372 C15.41291084 372.32289653 9.96214593 371.42569772 5 367 C5 366.34 5 365.68 5 365 C4.34 365 3.68 365 3 365 C-0.34482447 359.86874761 -1.49808097 356.63138443 -1.47428894 350.3631897 C-1.47700107 349.62599681 -1.47971321 348.88880393 -1.48250753 348.12927186 C-1.48673206 345.67511462 -1.46247523 343.22209475 -1.43823242 340.76806641 C-1.43546488 339.00153792 -1.43447875 337.23500588 -1.43513489 335.46847534 C-1.43201489 330.67846791 -1.404381 325.88887568 -1.37264419 321.09898424 C-1.34382844 316.07011924 -1.33862164 311.04123252 -1.33113098 306.01229858 C-1.31353712 296.47392116 -1.27642029 286.93573024 -1.2315343 277.39744604 C-1.16656139 263.44937769 -1.1263125 249.50123375 -1.09147358 235.55306053 C-1.08890417 234.52483858 -1.08633476 233.49661662 -1.08368748 232.43723643 C-1.07858705 230.38442776 -1.07355491 228.33161892 -1.06859285 226.27880991 C-1.05344943 220.30987716 -1.03117424 214.34102685 -1.00253522 208.37214398 C-0.98534565 204.63471817 -0.97231862 200.89728454 -0.96006584 197.15983963 C-0.95347975 195.44475487 -0.94509278 193.72967577 -0.93462753 192.01461029 C-0.88404957 183.61407451 -0.98696573 175.28749558 -1.56562805 166.90463257 C-1.90704559 161.93584577 -2.00444497 157.24879525 -1.27101326 152.3146534 C-0.60819093 146.65366121 -0.81824269 140.9025235 -0.79467773 135.20874023 C-0.78508234 133.72959632 -0.77507133 132.25045506 -0.76467896 130.77131653 C-0.73780359 126.78025828 -0.71670078 122.78918841 -0.69667697 118.7980907 C-0.67470939 114.61806327 -0.64737374 110.43807094 -0.62062073 106.2580719 C-0.57083873 98.35354699 -0.52584654 90.44900244 -0.48259836 82.54443938 C-0.4331016 73.54075122 -0.37822986 64.5370983 -0.32291877 55.53344429 C-0.2093214 37.02232895 -0.1024345 18.51118031 0 0 Z " fill="#9E3765" transform="translate(425,312)"/>
<path d="M0 0 C-11.78609066 6.9176165 -23.58719395 13.8024156 -35.5 20.5 C-44.32173164 25.46203555 -53.08163501 30.52159655 -61.81738281 35.63330078 C-75.84056737 43.83797096 -89.91179699 51.96012721 -104.0234375 60.01171875 C-104.60919556 60.34598373 -105.19495361 60.68024872 -105.79846191 61.02464294 C-108.74598496 62.70630559 -111.69430294 64.3865566 -114.64355469 66.06518555 C-120.34804547 69.31579952 -126.03199609 72.59674037 -131.6796875 75.9453125 C-132.74558105 76.5755835 -133.81147461 77.20585449 -134.90966797 77.85522461 C-136.8892862 79.02895149 -138.86524059 80.20889348 -140.83642578 81.39672852 C-149.75924131 86.68281348 -159.10727662 90.98904564 -169.25 93.3125 C-169.960354 93.47637207 -170.67070801 93.64024414 -171.40258789 93.80908203 C-182.22881476 96.10225742 -193.2881849 95.88395022 -204 93 C-204 92.67 -204 92.34 -204 92 C-193.44 92 -182.88 92 -172 92 C-172 91.34 -172 90.68 -172 90 C-170.906875 89.9175 -169.81375 89.835 -168.6875 89.75 C-164.0429913 89.18803098 -159.94903703 87.64419403 -155.61328125 85.9375 C-153.08075468 85.02897029 -150.64728668 84.45790905 -148 84 C-148 83.34 -148 82.68 -148 82 C-145.525 81.505 -145.525 81.505 -143 81 C-143 80.34 -143 79.68 -143 79 C-137.25 76 -137.25 76 -135 76 C-134.505 74.515 -134.505 74.515 -134 73 C-131.67280199 71.904848 -129.38684395 70.93820954 -127 70 C-122.73506689 68.31881097 -122.73506689 68.31881097 -120 65 C-118.3523962 64.28752268 -116.68236471 63.62599617 -115 63 C-112.80600276 62.03206004 -111.2810529 61.29957501 -109.63671875 59.546875 C-107.80733981 57.81791543 -106.26824865 57.11387741 -103.9375 56.1875 C-98.1795737 53.7373186 -91.84452913 50.86524172 -87.390625 46.37890625 C-85.29775547 44.30367326 -82.7783242 43.88906374 -80 43 C-78.32665961 42.01120795 -76.65848177 41.01351664 -75 40 C-74.34 40 -73.68 40 -73 40 C-72.67 39.01 -72.34 38.02 -72 37 C-71.01 36.67 -70.02 36.34 -69 36 C-68.38125 35.2575 -68.38125 35.2575 -67.75 34.5 C-65.11044635 32.23752544 -62.37729327 32.31861257 -59 32 C-59 31.34 -59 30.68 -59 30 C-57.96875 29.5875 -56.9375 29.175 -55.875 28.75 C-52.28331017 27.21484225 -49.21020904 25.2331889 -46 23 C-42.42632346 20.61754897 -41.43171764 20 -37 20 C-37 19.34 -37 18.68 -37 18 C-34.4453125 16.2734375 -34.4453125 16.2734375 -31.125 14.375 C-30.03445313 13.74335937 -28.94390625 13.11171875 -27.8203125 12.4609375 C-25 11 -25 11 -23 11 C-22.67 10.34 -22.34 9.68 -22 9 C-21.01 9.495 -21.01 9.495 -20 10 C-20 9.34 -20 8.68 -20 8 C-17 6 -17 6 -13 6 C-12.67 5.01 -12.34 4.02 -12 3 C-10.0390625 1.796875 -10.0390625 1.796875 -7.625 0.75 C-6.83351563 0.39421875 -6.04203125 0.0384375 -5.2265625 -0.328125 C-3 -1 -3 -1 0 0 Z " fill="#973266" transform="translate(628,651)"/>
<path d="M0 0 C1.32 1.32 2.64 2.64 4 4 C3.34 4.66 2.68 5.32 2 6 C1.69866764 8.04143909 1.69866764 8.04143909 1.75111103 10.42596436 C1.74651223 11.36226307 1.74191344 12.29856178 1.73717529 13.26323318 C1.74231885 14.29881741 1.74746241 15.33440163 1.75276184 16.40136719 C1.75034743 17.49605694 1.74793301 18.59074669 1.74544543 19.71860886 C1.73977943 23.41142369 1.74849345 27.10406776 1.75708008 30.796875 C1.75600791 33.43429006 1.75415069 36.07169379 1.75132751 38.70910645 C1.74627806 45.14382662 1.75193648 51.57849553 1.76117782 58.01320934 C1.77154567 65.50058082 1.77149205 72.98794112 1.77100524 80.47531843 C1.77050424 93.83121272 1.77967623 107.18708309 1.79418945 120.54296875 C1.80827762 133.51432735 1.81536025 146.48566489 1.81469727 159.45703125 C1.81465731 160.25588981 1.81461735 161.05474837 1.81457619 161.87781477 C1.81453583 162.67526751 1.81449548 163.47272025 1.8144539 164.29433823 C1.81376462 179.04472835 1.81965089 193.79510949 1.82860712 208.5454967 C1.8316278 213.76938579 1.83268719 218.99327323 1.83313942 224.21716309 C1.83382051 230.57995847 1.83827053 236.94273873 1.84747223 243.30552769 C1.85209954 246.55432334 1.85460253 249.80309563 1.85387802 253.05189514 C1.85339053 256.56749839 1.8590114 260.08303834 1.86628723 263.59863281 C1.86473863 264.63421703 1.86319003 265.66980125 1.8615945 266.73676682 C1.86481894 267.67306553 1.86804339 268.60936424 1.87136555 269.57403564 C1.87206997 270.38631245 1.8727744 271.19858925 1.87350017 272.0354805 C1.87721808 274.07844798 1.87721808 274.07844798 3 276 C3.31909709 277.99580723 3.60571053 279.9968643 3.875 282 C5.2282013 290.96866264 7.24301125 298.38476781 12.109375 306.08984375 C13 308 13 308 12 311 C-1.20465157 294.35065672 -0.56898054 273.56137697 -0.45410156 253.50219727 C-0.45073528 250.73154262 -0.45343387 247.96090139 -0.45587158 245.19024658 C-0.45795728 239.25142201 -0.44553089 233.3127748 -0.42292023 227.37399483 C-0.39025161 218.78781076 -0.37997812 210.20171143 -0.37496826 201.61547195 C-0.36623876 187.68101812 -0.33968724 173.74665857 -0.30175781 159.81225586 C-0.26497674 146.28556791 -0.23669492 132.75890567 -0.21972656 119.23217773 C-0.21867567 118.39677283 -0.21762477 117.56136792 -0.21654204 116.70064772 C-0.21132145 112.50918337 -0.20626672 108.31771885 -0.20129442 104.1262542 C-0.15990551 69.41743563 -0.08952145 34.70872655 0 0 Z " fill="#C5446A" transform="translate(362,397)"/>
<path d="M0 0 C0.87398437 0.31710937 0.87398437 0.31710937 1.765625 0.640625 C-17.08933298 11.75890185 -35.98159595 22.80836079 -54.99920654 33.64639282 C-74.61347115 44.71231071 -74.61347115 44.71231071 -93.90649414 56.31518555 C-96.234375 57.640625 -96.234375 57.640625 -98.234375 57.640625 C-97.904375 56.650625 -97.574375 55.660625 -97.234375 54.640625 C-96.244375 54.640625 -95.254375 54.640625 -94.234375 54.640625 C-94.234375 53.650625 -94.234375 52.660625 -94.234375 51.640625 C-90.769375 51.145625 -90.769375 51.145625 -87.234375 50.640625 C-87.234375 49.980625 -87.234375 49.320625 -87.234375 48.640625 C-86.244375 48.640625 -85.254375 48.640625 -84.234375 48.640625 C-84.234375 47.980625 -84.234375 47.320625 -84.234375 46.640625 C-83.574375 46.640625 -82.914375 46.640625 -82.234375 46.640625 C-81.904375 45.980625 -81.574375 45.320625 -81.234375 44.640625 C-79.234375 43.640625 -77.234375 42.640625 -75.234375 41.640625 C-74.904375 40.980625 -74.574375 40.320625 -74.234375 39.640625 C-73.5125 39.516875 -72.790625 39.393125 -72.046875 39.265625 C-68.49808809 38.47700569 -66.20528122 36.68724928 -63.234375 34.640625 C-62.574375 34.640625 -61.914375 34.640625 -61.234375 34.640625 C-60.904375 33.650625 -60.574375 32.660625 -60.234375 31.640625 C-59.5125 31.5375 -58.790625 31.434375 -58.046875 31.328125 C-54.89872598 30.55857746 -52.9704677 29.3817749 -50.234375 27.640625 C-48.69995133 26.73244138 -47.15764672 25.8374938 -45.609375 24.953125 C-44.85398437 24.51613281 -44.09859375 24.07914063 -43.3203125 23.62890625 C-41.234375 22.640625 -41.234375 22.640625 -38.234375 22.640625 C-38.234375 21.980625 -38.234375 21.320625 -38.234375 20.640625 C-37.265 20.3725 -36.295625 20.104375 -35.296875 19.828125 C-34.28625 19.43625 -33.275625 19.044375 -32.234375 18.640625 C-31.739375 17.155625 -31.739375 17.155625 -31.234375 15.640625 C-29.046875 14.640625 -29.046875 14.640625 -26.234375 13.640625 C-21.49798439 11.54890815 -21.49798439 11.54890815 -18.234375 7.640625 C-16.31948968 6.91428919 -14.40101106 6.19516011 -12.4609375 5.5390625 C-9.36812618 4.291086 -6.79251559 2.47168476 -4.09375 0.53125 C-2.234375 -0.359375 -2.234375 -0.359375 0 0 Z " fill="#A33265" transform="translate(726.234375,592.359375)"/>
<path d="M0 0 C0.495 1.485 0.495 1.485 1 3 C-3.68588762 6.88904886 -6.87217272 9.14495433 -13 10 C-14.04625409 11.29735507 -15.04701223 12.63266972 -16 14 C-18.375 15.0625 -18.375 15.0625 -21 16 C-22.68029994 16.97691857 -24.34928604 17.97388051 -26 19 C-26.99 19.495 -26.99 19.495 -28 20 C-28.66 19.67 -29.32 19.34 -30 19 C-30 19.66 -30 20.32 -30 21 C-30.92232422 21.48919922 -30.92232422 21.48919922 -31.86328125 21.98828125 C-32.67152344 22.42527344 -33.47976563 22.86226562 -34.3125 23.3125 C-35.11300781 23.74175781 -35.91351562 24.17101562 -36.73828125 24.61328125 C-39.01068473 25.88127518 -39.01068473 25.88127518 -40.58203125 27.609375 C-42 29 -42 29 -45.375 29.9375 C-48.98058607 30.74246732 -48.98058607 30.74246732 -51.2890625 32.84765625 C-54.84595593 35.67164512 -58.74563766 37.44507403 -62.828125 39.35546875 C-66.64490591 41.18918306 -69.76725309 43.27738514 -73 46 C-74.31836295 46.69580267 -75.64791086 47.37224433 -77 48 C-77.495 48.495 -77.495 48.495 -78 49 C-79.66617115 49.04063832 -81.33388095 49.042721 -83 49 C-78.26793916 44.82169096 -72.86558225 41.98031036 -67.375 38.9375 C-65.29381846 37.77294348 -63.21309564 36.60756684 -61.1328125 35.44140625 C-59.57868652 34.57153076 -59.57868652 34.57153076 -57.99316406 33.68408203 C-53.72502216 31.28264297 -49.48431182 28.83547849 -45.25 26.375 C-44.48429688 25.93027344 -43.71859375 25.48554687 -42.9296875 25.02734375 C-41.39273164 24.13424777 -39.85594667 23.24085763 -38.31933594 22.34716797 C-35.94658738 20.9689757 -33.57135987 19.59515268 -31.1953125 18.22265625 C-20.76722125 12.19830908 -10.37118522 6.12178795 0 0 Z " fill="#AC3566" transform="translate(707,530)"/>
<path d="M0 0 C1.23051636 3.59622738 0.79495922 6.35936924 0.125 10.0625 C-0.05804688 11.10535156 -0.24109375 12.14820313 -0.4296875 13.22265625 C-1 16 -1 16 -2 19 C-2.36501943 23.48960878 -2.43537695 27.99798061 -2.5625 32.5 C-2.58367889 33.20243835 -2.60485779 33.90487671 -2.62667847 34.62860107 C-3.37914256 60.40325628 -3.08627019 86.2171463 -3 112 C-3.99 112.495 -3.99 112.495 -5 113 C-5.09316084 100.88993637 -5.16399714 88.77995965 -5.20724869 76.66960907 C-5.22801952 71.04474625 -5.25614281 65.42013072 -5.30175781 59.79541016 C-5.34559323 54.35535797 -5.36921584 48.91554188 -5.37950897 43.47532654 C-5.38683327 41.41194448 -5.40113339 39.34857362 -5.42292023 37.28529358 C-5.68538547 11.37077094 -5.68538547 11.37077094 0 0 Z " fill="#942A62" transform="translate(367,284)"/>
<path d="M0 0 C1.32 1.32 2.64 2.64 4 4 C3.34 4.66 2.68 5.32 2 6 C1.7031083 7.8550791 1.7031083 7.8550791 1.75949097 9.99893188 C1.75674164 10.83468246 1.75399231 11.67043304 1.75115967 12.5315094 C1.75835022 13.45004196 1.76554077 14.36857452 1.77294922 15.31494141 C1.77265717 16.28083694 1.77236511 17.24673248 1.77206421 18.24189758 C1.77346128 21.44520955 1.78904026 24.648291 1.8046875 27.8515625 C1.80841629 30.06830722 1.81126389 32.28505358 1.81326294 34.50180054 C1.82090996 40.34456916 1.84056763 46.18723882 1.8626709 52.02996826 C1.88310632 57.98871522 1.89225972 63.94747812 1.90234375 69.90625 C1.92381251 81.60421022 1.95796133 93.30209689 2 105 C1.01 105.495 1.01 105.495 0 106 C0 71.02 0 36.04 0 0 Z " fill="#CE4B6D" transform="translate(362,397)"/>
<path d="M0 0 C0.33 0 0.66 0 1 0 C1.01030746 0.78482758 1.02061493 1.56965515 1.03123474 2.37826538 C1.12910777 9.76522328 1.23160753 17.15209546 1.33933926 24.53891563 C1.39456444 28.33678642 1.44798378 32.1346649 1.49731445 35.93261719 C1.54496401 39.59607367 1.597307 43.25943546 1.65294075 46.92277908 C1.67336163 48.32222773 1.69207517 49.72170235 1.70907402 51.12119675 C1.73312361 53.07744014 1.76374122 55.03359949 1.79467773 56.98974609 C1.81022202 58.1044931 1.8257663 59.21924011 1.84178162 60.36776733 C1.82581145 62.97890829 1.82581145 62.97890829 3 65 C3.31909709 66.99580723 3.60571053 68.9968643 3.875 71 C5.2282013 79.96866264 7.24301125 87.38476781 12.109375 95.08984375 C13 97 13 97 12 100 C1.39522449 86.62876132 -0.62875495 69.64851728 -0.390625 53.22265625 C-0.38313887 51.67468508 -0.37745721 50.12670424 -0.37347412 48.57872009 C-0.35840383 44.55909766 -0.31929015 40.54007923 -0.2746582 36.52069092 C-0.23329672 32.39734054 -0.21537704 28.27388989 -0.1953125 24.15039062 C-0.15277154 16.09998721 -0.08475527 8.05006931 0 0 Z " fill="#B54469" transform="translate(362,608)"/>
<path d="M0 0 C0.33 0 0.66 0 1 0 C1 35.64 1 71.28 1 108 C0.67 108 0.34 108 0 108 C-0.01030746 106.97286392 -0.02061493 105.94572784 -0.03123474 104.88746643 C-0.12963479 95.13590813 -0.23242184 85.38440426 -0.33933926 75.63293552 C-0.39414994 70.62143937 -0.44749541 65.60993713 -0.49731445 60.59838867 C-0.5455849 55.74834352 -0.59793634 50.898357 -0.65294075 46.04838371 C-0.67308474 44.2119591 -0.6918379 42.37551861 -0.70907402 40.53906441 C-0.73375179 37.93686963 -0.762644 35.33478023 -0.79467773 32.73266602 C-0.80455436 31.91069512 -0.81443098 31.08872423 -0.8246069 30.24184513 C-0.92523799 23.99036753 -1.26010493 17.7666569 -1.83619595 11.54025364 C-2.17268506 7.21421767 -1.62630126 4.01631424 0 0 Z " fill="#AC4366" transform="translate(425,465)"/>
<path d="M0 0 C0.99 0.33 1.98 0.66 3 1 C-10.05877415 11.50181138 -29.76339296 14.22342572 -46 13 C-49.39338123 12.51464365 -52.69028163 11.89107802 -56 11 C-56 10.67 -56 10.34 -56 10 C-45.44 10 -34.88 10 -24 10 C-24 9.34 -24 8.68 -24 8 C-22.906875 7.9175 -21.81375 7.835 -20.6875 7.75 C-16.0429913 7.18803098 -11.94903703 5.64419403 -7.61328125 3.9375 C-5.08075468 3.02897029 -2.64728668 2.45790905 0 2 C0 1.34 0 0.68 0 0 Z " fill="#9D3769" transform="translate(480,733)"/>
<path d="M0 0 C0.928125 0.495 1.85625 0.99 2.8125 1.5 C2.8125 2.16 2.8125 2.82 2.8125 3.5 C-2.9375 1.625 -2.9375 1.625 -5.1875 0.5 C-10.98950112 -0.10020701 -14.34154454 0.65777857 -19.328125 3.625 C-26.63870437 10.99701281 -25.84641646 20.34938103 -25.9375 30 C-25.96569898 31.50524211 -25.99563182 33.0104528 -26.02734375 34.515625 C-26.10074292 38.17693617 -26.15060126 41.83811788 -26.1875 45.5 C-26.5175 45.5 -26.8475 45.5 -27.1875 45.5 C-27.23713625 40.76775624 -27.27333097 36.03566585 -27.29736328 31.30322266 C-27.30738763 29.69512287 -27.32101066 28.08704115 -27.33837891 26.47900391 C-27.36278488 24.16043624 -27.37401886 21.84211071 -27.3828125 19.5234375 C-27.39313507 18.81069672 -27.40345764 18.09795593 -27.41409302 17.36361694 C-27.4150565 13.02490917 -26.78187933 9.53284183 -25.1875 5.5 C-24.5275 5.5 -23.8675 5.5 -23.1875 5.5 C-22.98125 4.901875 -22.775 4.30375 -22.5625 3.6875 C-18.02911143 -3.52470909 -7.05051874 -3.00936776 0 0 Z " fill="#AE265D" transform="translate(451.1875,298.5)"/>
<path d="M0 0 C3.34249629 0.59687434 5.46436342 1.73603877 8 4 C8 4.66 8 5.32 8 6 C8.53625 6.0825 9.0725 6.165 9.625 6.25 C12.8366675 7.26421079 15.24779613 9.0854234 18 11 C18.66 11.33 19.32 11.66 20 12 C20 12.66 20 13.32 20 14 C22.64 14.33 25.28 14.66 28 15 C28.33 15.99 28.66 16.98 29 18 C29.62648438 18.03738281 30.25296875 18.07476563 30.8984375 18.11328125 C31.71570313 18.17902344 32.53296875 18.24476563 33.375 18.3125 C34.18710937 18.37050781 34.99921875 18.42851563 35.8359375 18.48828125 C38 19 38 19 40 22 C33.99132262 21.50263744 29.29867894 20.22638533 23.875 17.625 C23.14796875 17.28065918 22.4209375 16.93631836 21.671875 16.58154297 C14.60860531 13.07605699 3.64636366 7.29272733 0 0 Z " fill="#A73D6A" transform="translate(384,721)"/>
<path d="M0 0 C0 0.66 0 1.32 0 2 C-0.99 2 -1.98 2 -3 2 C-3 2.66 -3 3.32 -3 4 C-3.886875 4.391875 -4.77375 4.78375 -5.6875 5.1875 C-9.19434412 7.10633924 -11.23229782 9.1340362 -14 12 C-19 17 -24 22 -29 27 C-29.66 26.67 -30.32 26.34 -31 26 C-11.74074074 0 -11.74074074 0 0 0 Z " fill="#AF3365" transform="translate(406,243)"/>
<path d="M0 0 C2.0625 0.4375 2.0625 0.4375 4 1 C0.37410189 3.12425199 -3.25551275 5.24196194 -6.88867188 7.35375977 C-8.12343172 8.0726867 -9.35716859 8.79337363 -10.58984375 9.51586914 C-12.36450778 10.5556219 -14.14278586 11.58893548 -15.921875 12.62109375 C-16.99018555 13.2442749 -18.05849609 13.86745605 -19.15917969 14.50952148 C-21.52087415 15.74861951 -23.39841699 16.53621569 -26 17 C-26 16.34 -26 15.68 -26 15 C-25.01 15 -24.02 15 -23 15 C-23 14.34 -23 13.68 -23 13 C-21.35 12.67 -19.7 12.34 -18 12 C-18 11.34 -18 10.68 -18 10 C-12.75206639 6.20923911 -6.97953512 3.41725888 -1 1 C-0.67 0.67 -0.34 0.34 0 0 Z " fill="#AB3767" transform="translate(754,575)"/>
<path d="M0 0 C4.57574099 4.57574099 3.18381126 12.63427665 3.1875 18.6875 C3.19974609 19.72583984 3.21199219 20.76417969 3.22460938 21.83398438 C3.24120895 30.6594277 2.05954384 38.69552386 -1 47 C-1.33 47 -1.66 47 -2 47 C-1.855625 45.865625 -1.71125 44.73125 -1.5625 43.5625 C-1.06555056 39.6428988 -0.65901067 35.71791464 -0.28125 31.78515625 C0 30 0 30 1 29 C1.09918457 27.53262975 1.13079841 26.06056091 1.1328125 24.58984375 C1.13410156 23.68169922 1.13539063 22.77355469 1.13671875 21.83789062 C1.13285156 20.88076172 1.12898437 19.92363281 1.125 18.9375 C1.12886719 18.00744141 1.13273438 17.07738281 1.13671875 16.11914062 C1.12903623 10.65302815 0.80250387 5.4073475 0 0 Z " fill="#B43967" transform="translate(823,470)"/>
<path d="M0 0 C2.1519437 3.22791555 2.20086443 4.28400809 2 8 C2.66 8 3.32 8 4 8 C4.185625 9.19625 4.37125 10.3925 4.5625 11.625 C5.70125062 16.96183126 8.08832224 21.46985923 10.69946289 26.21337891 C11.53615279 27.77342743 12.27544965 29.38481327 13 31 C12.505 32.485 12.505 32.485 12 34 C4.92522993 25.07963774 0 11.40717772 0 0 Z " fill="#BA5377" transform="translate(362,674)"/>
<path d="M0 0 C0.66 0.33 1.32 0.66 2 1 C-3.68774266 5.4840714 -9.59075998 9.2840057 -15.875 12.875 C-16.72835937 13.37257813 -17.58171875 13.87015625 -18.4609375 14.3828125 C-24.74132898 18 -24.74132898 18 -27 18 C-26 15 -26 15 -23.78515625 13.61328125 C-22.88667969 13.18402344 -21.98820313 12.75476563 -21.0625 12.3125 C-20.16660156 11.87550781 -19.27070312 11.43851563 -18.34765625 10.98828125 C-16 10 -16 10 -14 10 C-14 9.34 -14 8.68 -14 8 C-12.68 8 -11.36 8 -10 8 C-10 7.34 -10 6.68 -10 6 C-9.030625 5.54625 -8.06125 5.0925 -7.0625 4.625 C-3.92920418 3.34213779 -3.92920418 3.34213779 -3 1 C-2.01 0.67 -1.02 0.34 0 0 Z " fill="#A93161" transform="translate(795,551)"/>
<path d="M0 0 C0.33 0 0.66 0 1 0 C1 11.88 1 23.76 1 36 C0.67 36 0.34 36 0 36 C-0.33704991 31.83846545 -0.65794795 27.67608344 -0.96435547 23.51220703 C-1.07066954 22.09780981 -1.18128306 20.6837286 -1.29638672 19.27001953 C-1.46170099 17.23018522 -1.61118454 15.18969001 -1.7578125 13.1484375 C-1.8520752 11.92302246 -1.94633789 10.69760742 -2.04345703 9.43505859 C-1.99838003 5.87194988 -1.3095238 3.29365077 0 0 Z " fill="#BB436A" transform="translate(425,465)"/>
<path d="M0 0 C1.15379251 3.46137752 0.84662604 6.00132264 0.1875 9.5625 C-0.00199219 10.61050781 -0.19148438 11.65851563 -0.38671875 12.73828125 C-0.58910156 13.81464844 -0.79148437 14.89101563 -1 16 C-1.3753416 18.08327182 -1.75036549 20.16660091 -2.125 22.25 C-2.41575581 23.83350085 -2.70706435 25.41690095 -3 27 C-3.33 27 -3.66 27 -4 27 C-5.88434251 18.2064016 -4.0412914 8.08258279 0 0 Z " fill="#A43365" transform="translate(367,284)"/>
<path d="M0 0 C4.28668688 -0.04975174 8.57321697 -0.0858847 12.86010742 -0.10986328 C14.31586641 -0.1198685 15.77160557 -0.13347696 17.22729492 -0.15087891 C19.3299654 -0.17537044 21.43236824 -0.18653794 23.53515625 -0.1953125 C25.42826538 -0.21102295 25.42826538 -0.21102295 27.35961914 -0.22705078 C31.25897529 0.0161523 34.30328756 0.79622547 38 2 C35.57296224 2.84012845 34.0873821 3.01650551 31.5390625 2.53515625 C26.68120783 1.80057999 21.9054401 1.85548233 17 1.875 C16.02804687 1.87113281 15.05609375 1.86726562 14.0546875 1.86328125 C9.25810769 1.8698161 4.71493453 1.99648353 0 3 C0 2.01 0 1.02 0 0 Z " fill="#FCCEE1" transform="translate(424,233)"/>
<path d="M0 0 C3.34249629 0.59687434 5.46436342 1.73603877 8 4 C8 4.66 8 5.32 8 6 C8.5775 6.103125 9.155 6.20625 9.75 6.3125 C12.32049158 7.09792798 13.93657284 8.30504197 16 10 C15.67 10.99 15.34 11.98 15 13 C12.6838794 11.21285146 10.37206728 9.42058195 8.0625 7.625 C7.40314453 7.11710938 6.74378906 6.60921875 6.06445312 6.0859375 C5.43603516 5.59609375 4.80761719 5.10625 4.16015625 4.6015625 C3.57886963 4.15119629 2.99758301 3.70083008 2.39868164 3.23681641 C1 2 1 2 0 0 Z " fill="#B14972" transform="translate(384,721)"/>
<path d="M0 0 C1.32 0 2.64 0 4 0 C4 0.66 4 1.32 4 2 C4.825 2.2475 5.65 2.495 6.5 2.75 C10.46319728 4.1654276 14.4885509 5.64506636 18 8 C18.33 8.99 18.66 9.98 19 11 C14.25652774 9.62309544 10.27474838 7.56160559 6.125 4.9375 C5.53203125 4.57333984 4.9390625 4.20917969 4.328125 3.83398438 C2.86464287 2.9218371 1.4292745 1.96486632 0 1 C0 0.67 0 0.34 0 0 Z " fill="#BA3B69" transform="translate(629,403)"/>
<path d="M0 0 C1.81242052 -0.02687279 3.62495233 -0.04633715 5.4375 -0.0625 C6.44683594 -0.07410156 7.45617187 -0.08570313 8.49609375 -0.09765625 C11 0 11 0 12 1 C14.34987262 1.23527773 16.70556039 1.41386417 19.0625 1.5625 C20.35285156 1.64628906 21.64320313 1.73007812 22.97265625 1.81640625 C24.47119141 1.90728516 24.47119141 1.90728516 26 2 C26 2.33 26 2.66 26 3 C17.10456358 3.19865739 8.67089803 3.33447255 0 1 C0 0.67 0 0.34 0 0 Z " fill="#B25C82" transform="translate(424,743)"/>
<path d="M0 0 C0.99 0.66 1.98 1.32 3 2 C2.113125 2.4125 1.22625 2.825 0.3125 3.25 C-3.01963378 4.84745811 -3.01963378 4.84745811 -5.5 7.1875 C-8.55422123 9.40181039 -10.31101364 9.34316152 -14 9 C-11.03786426 6.69534766 -7.97847243 4.72409552 -4.75 2.8125 C-3.85796875 2.28269531 -2.9659375 1.75289062 -2.046875 1.20703125 C-1.03367187 0.60955078 -1.03367187 0.60955078 0 0 Z " fill="#B43768" transform="translate(738,512)"/>
<path d="M0 0 C0.99 0.33 1.98 0.66 3 1 C5.52641324 8.57923973 4.21976654 15.88968223 1 23 C0.01 22.34 -0.98 21.68 -2 21 C-1.34 20.030625 -0.68 19.06125 0 18.0625 C2.47671645 13.73263755 2.63920664 9.88536503 2 5 C1.13346586 2.06919326 1.13346586 2.06919326 0 0 Z " fill="#B23563" transform="translate(759,480)"/>
<path d="M0 0 C1.9140625 0.82421875 1.9140625 0.82421875 4.7265625 2.32421875 C4.7265625 2.98421875 4.7265625 3.64421875 4.7265625 4.32421875 C-1.0234375 2.44921875 -1.0234375 2.44921875 -3.2734375 1.32421875 C-8.21613731 1.08113515 -11.76353508 1.06926754 -16.2734375 3.32421875 C-16.6034375 2.66421875 -16.9334375 2.00421875 -17.2734375 1.32421875 C-12.09202222 -1.72153122 -5.70185483 -1.69488125 0 0 Z " fill="#B23666" transform="translate(449.2734375,297.67578125)"/>
<path d="M0 0 C0.66 0.33 1.32 0.66 2 1 C-0.46074699 5.19774486 -3.4621436 6.4873812 -8 8 C-10.22265625 7.57421875 -10.22265625 7.57421875 -12 7 C-10.04754815 5.80285445 -8.08785003 4.61751926 -6.125 3.4375 C-5.03445313 2.77621094 -3.94390625 2.11492188 -2.8203125 1.43359375 C-1.88960937 0.96050781 -0.95890625 0.48742187 0 0 Z " fill="#A63C6E" transform="translate(568,610)"/>
<path d="M0 0 C0.99 0 1.98 0 3 0 C6 4.22222222 6 4.22222222 6 7 C6.639375 7.268125 7.27875 7.53625 7.9375 7.8125 C10 9 10 9 11 12 C10.01 12 9.02 12 8 12 C5.95703125 9.62890625 5.95703125 9.62890625 3.8125 6.5625 C3.09707031 5.55316406 2.38164062 4.54382813 1.64453125 3.50390625 C0 1 0 1 0 0 Z " fill="#B0476D" transform="translate(374,708)"/>
<path d="M0 0 C0.33 0 0.66 0 1 0 C1 1.98 1 3.96 1 6 C-0.98 6.99 -0.98 6.99 -3 8 C-3 9.65 -3 11.3 -3 13 C-3.99 13 -4.98 13 -6 13 C-4.58707905 8.1725201 -2.57025846 4.2837641 0 0 Z " fill="#A83866" transform="translate(374,270)"/>
<path d="M0 0 C0.27457031 0.56589844 0.54914063 1.13179687 0.83203125 1.71484375 C2.43642279 4.85387067 4.26386615 7.85485246 6.07421875 10.87890625 C7 13 7 13 6 16 C1.90759407 10.9332117 -0.47367627 6.6314678 0 0 Z " fill="#B5436C" transform="translate(368,692)"/>
<path d="M0 0 C-3.63 1.98 -7.26 3.96 -11 6 C-11.33 5.01 -11.66 4.02 -12 3 C-10.5682384 2.30062798 -9.12932968 1.61587282 -7.6875 0.9375 C-6.48673828 0.36322266 -6.48673828 0.36322266 -5.26171875 -0.22265625 C-3 -1 -3 -1 0 0 Z " fill="#A13C6C" transform="translate(628,651)"/>
<path d="M0 0 C0.33 0.66 0.66 1.32 1 2 C0.27683594 2.50660156 0.27683594 2.50660156 -0.4609375 3.0234375 C-1.09257813 3.46945312 -1.72421875 3.91546875 -2.375 4.375 C-3.31472656 5.03628906 -3.31472656 5.03628906 -4.2734375 5.7109375 C-6.12380509 7.02808866 -6.12380509 7.02808866 -8 9 C-9.32 8.34 -10.64 7.68 -12 7 C-8.04 4.69 -4.08 2.38 0 0 Z " fill="#FBDEEF" transform="translate(739,586)"/>
<path d="M0 0 C0.66 0.33 1.32 0.66 2 1 C0.75312408 1.96239452 -0.49764969 2.91974009 -1.75 3.875 C-2.44609375 4.40867187 -3.1421875 4.94234375 -3.859375 5.4921875 C-5.84722603 6.89238914 -7.79843386 7.97855265 -10 9 C-10 8.01 -10 7.02 -10 6 C-9.030625 5.54625 -8.06125 5.0925 -7.0625 4.625 C-3.92920418 3.34213779 -3.92920418 3.34213779 -3 1 C-2.01 0.67 -1.02 0.34 0 0 Z " fill="#B03968" transform="translate(795,551)"/>
<path d="M0 0 C0.99 0.66 1.98 1.32 3 2 C3 2.66 3 3.32 3 4 C3.61875 4.12375 4.2375 4.2475 4.875 4.375 C7 5 7 5 9 7 C8.01 7.495 8.01 7.495 7 8 C4.6171875 6.78515625 4.6171875 6.78515625 1.875 5.0625 C0.96492187 4.49660156 0.05484375 3.93070312 -0.8828125 3.34765625 C-1.58148437 2.90292969 -2.28015625 2.45820313 -3 2 C-2.01 1.34 -1.02 0.68 0 0 Z " fill="#B93D69" transform="translate(727,457)"/>
<path d="M0 0 C0.33 1.32 0.66 2.64 1 4 C-0.43359375 6.140625 -0.43359375 6.140625 -2.4375 8.25 C-3.09621094 8.95640625 -3.75492188 9.6628125 -4.43359375 10.390625 C-5.20896484 11.18726563 -5.20896484 11.18726563 -6 12 C-6.66 11.67 -7.32 11.34 -8 11 C-5.36 7.37 -2.72 3.74 0 0 Z " fill="#FDDFF1" transform="translate(814,532)"/>
<path d="M0 0 C0.66 0.33 1.32 0.66 2 1 C0.50260417 2.23697917 -0.99479167 3.47395833 -2.4921875 4.7109375 C-3.71051161 5.75250992 -4.86660097 6.86660097 -6 8 C-6 7.34 -6 6.68 -6 6 C-6.99 5.67 -7.98 5.34 -9 5 C-7.54735962 4.1361871 -6.0876837 3.28419546 -4.625 2.4375 C-3.40683594 1.72400391 -3.40683594 1.72400391 -2.1640625 0.99609375 C-1.44992187 0.66738281 -0.73578125 0.33867188 0 0 Z " fill="#F9E1F2" transform="translate(557,691)"/>
<path d="M0 0 C2.14699969 3.44175522 2.09856795 5.7720292 1.625 9.75 C1.51414062 10.73484375 1.40328125 11.7196875 1.2890625 12.734375 C1.19367188 13.48203125 1.09828125 14.2296875 1 15 C0.67 15 0.34 15 0 15 C-0.75612577 9.76528314 -1.2063366 5.22745859 0 0 Z " fill="#A93C6F" transform="translate(363,296)"/>
<path d="M0 0 C-0.804375 0.45375 -1.60875 0.9075 -2.4375 1.375 C-5.08856572 2.74725665 -5.08856572 2.74725665 -6 5 C-6.99 4.67 -7.98 4.34 -9 4 C-8 1 -8 1 -6.1875 -0.25 C-3.66056586 -1.11637742 -2.47778006 -0.88492145 0 0 Z " fill="#A63664" transform="translate(469,671)"/>
<path d="M0 0 C0.66 0.33 1.32 0.66 2 1 C0.92892883 1.86949317 -0.15745944 2.72014205 -1.25 3.5625 C-1.85328125 4.03816406 -2.4565625 4.51382813 -3.078125 5.00390625 C-5 6 -5 6 -7.234375 5.65234375 C-7.81703125 5.43707031 -8.3996875 5.22179687 -9 5 C-7.54735962 4.1361871 -6.0876837 3.28419546 -4.625 2.4375 C-3.40683594 1.72400391 -3.40683594 1.72400391 -2.1640625 0.99609375 C-1.44992187 0.66738281 -0.73578125 0.33867188 0 0 Z " fill="#FBDCF0" transform="translate(720,597)"/>
<path d="M0 0 C0.33 0.99 0.66 1.98 1 3 C-5.625 6.125 -5.625 6.125 -9 5 C-6.03 3.35 -3.06 1.7 0 0 Z " fill="#A9426E" transform="translate(598,593)"/>
<path d="M0 0 C3.96 0 7.92 0 12 0 C12 0.33 12 0.66 12 1 C8.04 1.66 4.08 2.32 0 3 C0 2.01 0 1.02 0 0 Z " fill="#FCDDEE" transform="translate(424,233)"/>
<path d="M0 0 C0 0.99 0 1.98 0 3 C-2.25 4.75 -2.25 4.75 -5 6 C-6.32 5.67 -7.64 5.34 -9 5 C-6.03 3.35 -3.06 1.7 0 0 Z " fill="#A5426F" transform="translate(475,664)"/>
<path d="M0 0 C0 0.66 0 1.32 0 2 C-0.99 2 -1.98 2 -3 2 C-3.33 2.99 -3.66 3.98 -4 5 C-5.98 5.33 -7.96 5.66 -10 6 C-7.35570758 3.077361 -4.105808 0 0 0 Z " fill="#F8D6EC" transform="translate(706,606)"/>
<path d="M0 0 C1.65 0 3.3 0 5 0 C4.67 0.99 4.34 1.98 4 3 C2.02 3.33 0.04 3.66 -2 4 C-1.34 2.68 -0.68 1.36 0 0 Z " fill="#962964" transform="translate(541,696)"/>
<path d="M0 0 C1.17219543 0.78345715 2.33763668 1.57702836 3.5 2.375 C4.47453125 3.03628906 4.47453125 3.03628906 5.46875 3.7109375 C5.9740625 4.13632812 6.479375 4.56171875 7 5 C7 5.66 7 6.32 7 7 C4.525 6.01 4.525 6.01 2 5 C2 4.34 2 3.68 2 3 C1.34 3 0.68 3 0 3 C0 2.01 0 1.02 0 0 Z " fill="#AD4C72" transform="translate(428,674)"/>
<path d="M0 0 C1.98 0 3.96 0 6 0 C6.66 1.65 7.32 3.3 8 5 C5.36 3.68 2.72 2.36 0 1 C0 0.67 0 0.34 0 0 Z " fill="#C53A69" transform="translate(538,351)"/>
<path d="M0 0 C0 0.33 0 0.66 0 1 C-4.1196377 2.29243536 -7.66831683 3.26252625 -12 3 C-8.2391768 -0.7608232 -5.0273023 -0.25136512 0 0 Z " fill="#F8C7E1" transform="translate(446,298)"/>
</svg>
